<?xml version="1.0" encoding="UTF-8" standalone="no"?>
<!-- Created with Inkscape (http://www.inkscape.org/) -->

<svg
   width="137.08365mm"
   height="69.578163mm"
   viewBox="0 0 137.08364 69.578163"
   version="1.1"
   id="svg45734"
   inkscape:version="1.2.2 (b0a84865, 2022-12-01)"
   sodipodi:docname="fig-doty.svg"
   inkscape:export-filename="fig-doty.png"
   inkscape:export-xdpi="96"
   inkscape:export-ydpi="96"
   xmlns:inkscape="http://www.inkscape.org/namespaces/inkscape"
   xmlns:sodipodi="http://sodipodi.sourceforge.net/DTD/sodipodi-0.dtd"
   xmlns="http://www.w3.org/2000/svg"
   xmlns:svg="http://www.w3.org/2000/svg">
  <sodipodi:namedview
     id="namedview45736"
     pagecolor="#ffffff"
     bordercolor="#000000"
     borderopacity="0.25"
     inkscape:showpageshadow="2"
     inkscape:pageopacity="0.0"
     inkscape:pagecheckerboard="0"
     inkscape:deskcolor="#d1d1d1"
     inkscape:document-units="mm"
     showgrid="false"
     inkscape:zoom="1.3237176"
     inkscape:cx="328.24222"
     inkscape:cy="142.02425"
     inkscape:window-width="1512"
     inkscape:window-height="916"
     inkscape:window-x="0"
     inkscape:window-y="38"
     inkscape:window-maximized="0"
     inkscape:current-layer="layer1" />
  <defs
     id="defs45731">
    <rect
       x="42.132469"
       y="269.17966"
       width="1868.8754"
       height="336.25861"
       id="rect3141" />
    <rect
       x="42.132469"
       y="269.17966"
       width="1463.1152"
       height="314.43033"
       id="rect3141-5" />
  </defs>
  <g
     inkscape:label="Layer 1"
     inkscape:groupmode="layer"
     id="layer1"
     transform="translate(-44.377016,-72.164383)">
    <rect
       x="46.362831"
       y="84.935226"
       stroke="#70ad47"
       fill="none"
       width="77.028366"
       height="44.528362"
       id="rect250"
       style="stroke:#c8cf2d;stroke-width:3.97163;stroke-dasharray:none;stroke-opacity:0.502262" />
    <text
       y="139.43985"
       x="73.507614"
       id="text306"
       style="font-style:normal;font-variant:normal;font-weight:200;font-stretch:normal;font-size:10.5833px;font-family:'Trebuchet MS', Helvetica, sans-serif;-inkscape-font-specification:'Trebuchet MS, Helvetica, sans-serif, Ultra-Light';font-variant-ligatures:normal;font-variant-caps:normal;font-variant-numeric:normal;font-variant-east-asian:normal;white-space:pre;fill:#f69833;fill-opacity:1;stroke:#888888;stroke-width:0.264583;stroke-opacity:1"><tspan
         sodipodi:role="line"
         id="tspan8350"
         style="fill:#f69833;fill-opacity:1;stroke:#888888;stroke-width:0.264583;stroke-opacity:1"
         x="73.507614"
         y="139.43985">Day of the year</tspan></text>
    <text
       y="80.40506"
       x="57.311527"
       id="text306-6"
       style="font-style:normal;font-variant:normal;font-weight:200;font-stretch:normal;font-size:11.2889px;font-family:'Trebuchet MS', Helvetica, sans-serif;-inkscape-font-specification:'Trebuchet MS, Helvetica, sans-serif, Ultra-Light';font-variant-ligatures:normal;font-variant-caps:normal;font-variant-numeric:normal;font-variant-east-asian:normal;white-space:pre;fill:#c8cf2d;fill-opacity:1;stroke:#888888;stroke-width:0.264583;stroke-opacity:1"><tspan
         sodipodi:role="line"
         id="tspan52792"
         x="57.311527"
         y="80.40506">January 1st</tspan></text>
    <g
       aria-label="306.0"
       transform="matrix(0.26458333,0,0,0.26458333,35.222427,8.4135036)"
       id="text3139"
       style="font-size:192px;font-family:Ewka;-inkscape-font-specification:'Ewka, Normal';white-space:pre;shape-inside:url(#rect3141);display:inline;stroke:#000000;stroke-linecap:square;stroke-linejoin:bevel;stroke-miterlimit:110">
      <path
         d="m 90.708812,444.78289 q -4.991999,0 -9.984,-0.768 -4.799999,-0.768 -9.215999,-2.88 -4.416,-2.112 -8.064001,-5.376 -3.647999,-3.264 -6.144,-7.488 -2.496,-4.416 -3.648,-9.216 -1.151999,-4.8 -1.151999,-9.6 0,-0.192 0,-0.192 0,0 0,-0.192 h 14.975999 q 0,0 0,0.192 0,0 0,0 0,4.608 1.536,9.024 1.728001,4.224 4.992,7.296 3.264,3.072 7.680001,4.416 4.416,1.344 9.023999,1.344 4.800001,0 9.407998,-1.536 4.608,-1.728 7.68,-5.376 3.264,-3.648 4.8,-8.256 1.536,-4.8 1.536,-9.6 0,-4.416 -1.536,-8.832 -1.344,-4.416 -4.032,-8.064 -2.688,-3.84 -6.528,-6.528 -3.647998,-2.688 -8.063997,-4.032 -4.224001,-1.344 -8.832,-1.728 -4.608,-0.384 -9.024001,-0.384 v -13.44 q 4.032001,0 8.256001,-0.192 4.223999,-0.384 8.256,-1.536 4.032,-1.344 7.487997,-3.84 3.456,-2.496 5.952,-5.76 2.496,-3.456 3.648,-7.488 1.344,-4.224 1.344,-8.448 0,-4.224 -1.344,-8.256 -1.152,-4.224 -3.84,-7.488 -2.688,-3.456 -6.911998,-4.992 -4.031999,-1.536 -8.256,-1.536 -4.223999,0 -8.256,1.344 -3.839999,1.344 -6.72,4.416 -2.687999,3.072 -4.032,7.104 -1.152,4.032 -1.152,8.256 0,0 0,0.192 0,0 0,0.192 h -14.976 q 0,-0.192 0,-0.384 0,-0.192 0,-0.384 0,-4.608 0.96,-9.024 1.152,-4.608 3.264001,-8.64 2.112,-4.224 5.375999,-7.488 3.456001,-3.264 7.488,-5.376 4.224,-2.112 8.832,-2.88 4.608001,-0.768 9.216,-0.768 4.608,0 9.216001,0.96 4.799997,0.768 8.831997,3.072 4.224,2.112 7.488,5.568 3.456,3.456 5.376,7.68 2.112,4.224 3.072,8.832 1.152,4.608 1.152,9.408 0,5.568 -1.536,10.944 -1.536,5.184 -4.608,9.792 -3.072,4.608 -7.488,8.064 -4.416,3.264 -9.6,5.184 5.76,2.112 10.752,5.76 4.992,3.456 8.448,8.448 3.648,4.8 5.376,10.752 1.728,5.76 1.728,11.904 0,4.992 -1.152,9.984 -1.152,4.992 -3.456,9.6 -2.304,4.416 -5.952,8.064 -3.648,3.648 -8.064,5.952 -4.416,2.304 -9.6,3.264 -4.991997,0.96 -9.983998,0.96 z"
         style="fill:#f69833;stroke:#888888"
         id="path1289" />
      <path
         d="m 186.13245,444.78289 q -5.568,0 -10.944,-2.112 -5.376,-2.304 -9.216,-6.336 -3.84,-4.032 -6.528,-9.024 -2.688,-4.992 -4.608,-10.176 -1.728,-5.376 -2.88,-10.752 -1.152,-5.568 -1.92,-11.136 -0.576,-5.76 -0.96,-11.328 -0.192,-5.568 -0.192,-11.136 v -0.192 q 0,-5.568 0.192,-11.136 0.384,-5.76 0.96,-11.328 0.768,-5.568 1.92,-10.944 1.152,-5.568 2.88,-10.944 1.92,-5.376 4.608,-10.368 2.688,-4.992 6.72,-8.832 4.224,-4.032 9.408,-6.144 5.376,-2.304 11.136,-2.304 5.568,0 10.752,2.304 5.184,2.304 9.024,6.336 3.84,4.032 6.528,9.024 2.688,4.992 4.416,10.368 1.92,5.184 2.88,10.752 1.152,5.376 1.728,10.944 0.768,5.568 0.96,11.136 0.384,5.568 0.384,11.328 0,5.568 -0.384,11.136 -0.192,5.568 -0.96,11.136 -0.576,5.568 -1.728,11.136 -1.152,5.568 -3.072,10.944 -1.728,5.184 -4.416,10.176 -2.688,4.992 -6.528,9.024 -3.84,4.032 -9.216,6.336 -5.376,2.112 -10.944,2.112 z m -22.08,-62.784 43.008,-34.176 q -0.576,-3.456 -1.344,-6.912 -0.576,-3.648 -1.728,-7.104 -0.96,-3.456 -2.304,-6.72 -1.344,-3.264 -3.456,-6.144 -2.112,-3.072 -5.376,-4.8 -3.072,-1.92 -6.72,-1.92 -3.456,0 -6.528,1.728 -3.072,1.536 -5.184,4.224 -1.92,2.688 -3.456,5.952 -1.344,3.072 -2.496,6.336 -0.96,3.072 -1.728,6.528 -0.576,3.264 -1.152,6.72 -0.576,3.264 -0.96,6.72 -0.192,3.264 -0.384,6.72 -0.192,3.264 -0.384,6.72 0,3.456 0,6.72 0,2.496 0,4.8 0,2.304 0.192,4.608 z m 22.08,49.344 q 3.456,0 6.528,-1.728 3.072,-1.728 4.992,-4.416 2.112,-2.688 3.456,-5.76 1.536,-3.264 2.496,-6.336 1.152,-3.264 1.728,-6.528 0.768,-3.456 1.344,-6.72 0.576,-3.456 0.768,-6.72 0.384,-3.456 0.576,-6.72 0.192,-3.456 0.192,-6.912 0.192,-3.456 0.192,-6.912 0,-2.304 0,-4.608 0,-2.304 -0.192,-4.608 l -43.008,34.176 q 0.576,3.456 1.152,7.104 0.768,3.456 1.728,6.912 1.152,3.456 2.496,6.912 1.536,3.264 3.456,6.144 2.112,2.88 5.184,4.8 3.264,1.92 6.912,1.92 z"
         style="fill:#f69833;stroke:#888888"
         id="path1291" />
      <path
         d="m 282.32408,444.78289 q -5.376,0 -10.752,-1.344 -5.376,-1.152 -9.984,-4.032 -4.608,-3.072 -8.064,-7.488 -3.264,-4.416 -5.184,-9.408 -1.92,-5.184 -2.688,-10.56 -0.768,-5.376 -0.768,-10.944 v -60.48 q 0,-5.184 0.768,-10.176 0.768,-5.184 2.88,-9.792 2.112,-4.8 5.376,-8.64 3.456,-4.032 7.872,-6.528 4.416,-2.688 9.6,-3.648 5.184,-1.152 10.176,-1.152 4.8,0 9.6,0.96 4.8,0.768 9.024,2.88 4.416,2.112 7.872,5.568 3.456,3.264 5.76,7.488 2.304,4.224 3.264,9.024 1.152,4.608 1.152,9.408 0,0 0,0.192 0,0 0,0.192 h -14.976 q 0,0 0,0 0,-0.192 0,-0.192 0,-4.416 -1.344,-8.64 -1.344,-4.224 -4.416,-7.296 -3.072,-3.264 -7.296,-4.608 -4.224,-1.536 -8.64,-1.536 -3.264,0 -6.528,0.768 -3.072,0.768 -5.76,2.688 -2.688,1.92 -4.608,4.608 -1.728,2.688 -2.88,5.76 -1.152,2.88 -1.536,6.144 -0.384,3.264 -0.384,6.528 v 27.84 q 1.92,-2.688 4.416,-4.8 2.496,-2.304 5.568,-3.648 3.072,-1.536 6.336,-1.92 3.456,-0.576 6.72,-0.576 5.184,0 10.176,1.152 4.992,0.96 9.408,3.648 4.416,2.496 7.872,6.528 3.456,3.84 5.376,8.64 2.112,4.608 2.88,9.792 0.768,4.992 0.768,10.176 v 7.488 q 0,5.184 -0.768,10.368 -0.768,4.992 -2.88,9.792 -2.112,4.608 -5.568,8.64 -3.456,3.84 -8.064,6.528 -4.416,2.496 -9.6,3.456 -4.992,1.152 -10.176,1.152 z m 0,-13.44 q 3.264,0 6.528,-0.768 3.264,-0.768 5.952,-2.688 2.688,-1.92 4.608,-4.416 1.92,-2.688 3.072,-5.76 1.152,-3.072 1.536,-6.336 0.384,-3.264 0.384,-6.528 v -7.488 q 0,-3.264 -0.384,-6.528 -0.384,-3.264 -1.536,-6.336 -1.152,-3.072 -3.072,-5.76 -1.92,-2.688 -4.8,-4.416 -2.688,-1.92 -5.952,-2.688 -3.072,-0.768 -6.336,-0.768 -3.456,0 -6.72,0.768 -3.072,0.768 -5.952,2.688 -2.688,1.728 -4.8,4.416 -1.92,2.688 -3.072,5.76 -1.152,3.072 -1.536,6.336 -0.384,3.264 -0.384,6.528 v 3.648 q 0,3.648 0.384,7.296 0.384,3.456 1.344,6.912 1.152,3.264 2.88,6.528 1.92,3.072 4.608,5.376 2.88,2.112 6.336,3.264 3.456,0.96 6.912,0.96 z"
         style="fill:#f69833;stroke:#888888"
         id="path1293" />
      <path
         d="m 378.13171,444.78289 q -3.072,0 -5.952,-0.96 -2.88,-0.768 -5.184,-2.88 -2.112,-2.304 -3.072,-5.184 -0.768,-2.88 -0.768,-5.952 0,-3.072 0.768,-5.952 0.96,-2.88 3.072,-4.992 2.304,-2.304 5.184,-3.072 2.88,-0.96 5.952,-0.96 3.072,0 5.952,0.96 2.88,0.768 4.992,3.072 2.304,2.112 3.072,4.992 0.96,2.88 0.96,5.952 0,3.072 -0.96,5.952 -0.768,2.88 -3.072,5.184 -2.112,2.112 -4.992,2.88 -2.88,0.96 -5.952,0.96 z"
         style="fill:#f69833;stroke:#888888"
         id="path1295" />
      <path
         d="m 474.13135,444.78289 q -5.568,0 -10.944,-2.112 -5.376,-2.304 -9.216,-6.336 -3.84,-4.032 -6.528,-9.024 -2.688,-4.992 -4.608,-10.176 -1.728,-5.376 -2.88,-10.752 -1.152,-5.568 -1.92,-11.136 -0.576,-5.76 -0.96,-11.328 -0.192,-5.568 -0.192,-11.136 v -0.192 q 0,-5.568 0.192,-11.136 0.384,-5.76 0.96,-11.328 0.768,-5.568 1.92,-10.944 1.152,-5.568 2.88,-10.944 1.92,-5.376 4.608,-10.368 2.688,-4.992 6.72,-8.832 4.224,-4.032 9.408,-6.144 5.376,-2.304 11.136,-2.304 5.568,0 10.752,2.304 5.184,2.304 9.024,6.336 3.84,4.032 6.528,9.024 2.688,4.992 4.416,10.368 1.92,5.184 2.88,10.752 1.152,5.376 1.728,10.944 0.768,5.568 0.96,11.136 0.384,5.568 0.384,11.328 0,5.568 -0.384,11.136 -0.192,5.568 -0.96,11.136 -0.576,5.568 -1.728,11.136 -1.152,5.568 -3.072,10.944 -1.728,5.184 -4.416,10.176 -2.688,4.992 -6.528,9.024 -3.84,4.032 -9.216,6.336 -5.376,2.112 -10.944,2.112 z m -22.08,-62.784 43.008,-34.176 q -0.576,-3.456 -1.344,-6.912 -0.576,-3.648 -1.728,-7.104 -0.96,-3.456 -2.304,-6.72 -1.344,-3.264 -3.456,-6.144 -2.112,-3.072 -5.376,-4.8 -3.072,-1.92 -6.72,-1.92 -3.456,0 -6.528,1.728 -3.072,1.536 -5.184,4.224 -1.92,2.688 -3.456,5.952 -1.344,3.072 -2.496,6.336 -0.96,3.072 -1.728,6.528 -0.576,3.264 -1.152,6.72 -0.576,3.264 -0.96,6.72 -0.192,3.264 -0.384,6.72 -0.192,3.264 -0.384,6.72 0,3.456 0,6.72 0,2.496 0,4.8 0,2.304 0.192,4.608 z m 22.08,49.344 q 3.456,0 6.528,-1.728 3.072,-1.728 4.992,-4.416 2.112,-2.688 3.456,-5.76 1.536,-3.264 2.496,-6.336 1.152,-3.264 1.728,-6.528 0.768,-3.456 1.344,-6.72 0.576,-3.456 0.768,-6.72 0.384,-3.456 0.576,-6.72 0.192,-3.456 0.192,-6.912 0.192,-3.456 0.192,-6.912 0,-2.304 0,-4.608 0,-2.304 -0.192,-4.608 l -43.008,34.176 q 0.576,3.456 1.152,7.104 0.768,3.456 1.728,6.912 1.152,3.456 2.496,6.912 1.536,3.264 3.456,6.144 2.112,2.88 5.184,4.8 3.264,1.92 6.912,1.92 z"
         style="fill:#f69833;stroke:#888888"
         id="path1297" />
    </g>
    <text
       y="80.363426"
       x="141.06223"
       id="text306-6-3"
       style="font-style:normal;font-variant:normal;font-weight:200;font-stretch:normal;font-size:10.5833px;font-family:'Trebuchet MS', Helvetica, sans-serif;-inkscape-font-specification:'Trebuchet MS, Helvetica, sans-serif, Ultra-Light';font-variant-ligatures:normal;font-variant-caps:normal;font-variant-numeric:normal;font-variant-east-asian:normal;white-space:pre;fill:#66ccff;fill-opacity:1;stroke:#888888;stroke-width:0.264583;stroke-opacity:1"><tspan
         sodipodi:role="line"
         id="tspan52790"
         x="141.06223"
         y="80.363426">Midnight</tspan></text>
    <rect
       x="147.2458"
       y="84.818207"
       stroke="#70ad47"
       fill="none"
       width="26.762396"
       height="44.762405"
       id="rect250-9-7"
       style="stroke:#66ccff;stroke-width:3.7376;stroke-dasharray:none;stroke-opacity:0.497738" />
  </g>
</svg>
